<mxfile host="app.diagrams.net" modified="2024-07-17T21:08:37.217Z" agent="Mozilla/5.0 (Windows NT 10.0; Win64; x64) AppleWebKit/537.36 (KHTML, like Gecko) Chrome/126.0.0.0 Safari/537.36" etag="8BiyT1xtbQa3rqBuD4S7" version="24.7.1" type="github">
  <diagram name="Page-1" id="XpPCK1Eph7cmieyFWtIH">
    <mxGraphModel dx="3180" dy="3056" grid="1" gridSize="10" guides="1" tooltips="1" connect="1" arrows="1" fold="1" page="1" pageScale="1" pageWidth="827" pageHeight="1169" math="0" shadow="0">
      <root>
        <mxCell id="0" />
        <mxCell id="1" parent="0" />
        <mxCell id="lRRmLABgRq14wL9_JeCl-2" value="" style="whiteSpace=wrap;html=1;aspect=fixed;" vertex="1" parent="1">
          <mxGeometry x="220" y="-1110" width="2090" height="2090" as="geometry" />
        </mxCell>
        <mxCell id="lRRmLABgRq14wL9_JeCl-6" value="Actor" style="shape=umlActor;verticalLabelPosition=bottom;verticalAlign=top;html=1;outlineConnect=0;" vertex="1" parent="1">
          <mxGeometry x="60" y="-260" width="80" height="150" as="geometry" />
        </mxCell>
      </root>
    </mxGraphModel>
  </diagram>
</mxfile>
